<?xml version="1.0" encoding="UTF-8" standalone="no"?>
<!DOCTYPE svg PUBLIC "-//W3C//DTD SVG 1.1//EN" "http://www.w3.org/Graphics/SVG/1.1/DTD/svg11.dtd">
<svg width="100%" height="100%" viewBox="0 0 92 38" version="1.1" xmlns="http://www.w3.org/2000/svg" xmlns:xlink="http://www.w3.org/1999/xlink" xml:space="preserve" xmlns:serif="http://www.serif.com/" style="fill-rule:evenodd;clip-rule:evenodd;stroke-linejoin:round;stroke-miterlimit:1.41421;">
    <g transform="matrix(1,0,0,1,-376,-34)">
        <path d="M390.485,35.875C385.879,38.054 382.781,42.806 382.843,47.88C382.822,53.038 386.023,57.929 390.648,59.988L392.698,60.761C392.698,60.761 392.054,60.823 391.891,60.804C387.571,60.785 383.575,58.541 381.312,54.708C379.092,51.286 379.051,45.883 381.17,42.396C383.107,38.83 386.837,36.77 390.485,35.875ZM403.45,37.706C400.138,35.928 395.988,34.963 392.16,36.317C388.253,37.488 384.67,41.53 384.026,45.562C383.143,49.922 384.612,54.262 387.809,57.17C387.917,57.295 388.435,57.677 388.435,57.677L387.432,55.73C385.37,51.106 386.266,45.329 389.734,41.51C393.086,37.697 398.566,36.242 403.45,37.706ZM398.172,60.17C397.394,60.622 396.54,60.866 395.726,61.171C391.037,62.515 385.757,61.25 382.394,57.624C378.91,54.055 377.765,48.674 379.457,43.925C378.377,45.698 377.623,47.614 377.196,49.654C375.73,57.379 379.111,64.798 385.898,68.755C390.73,71.77 398.292,71.81 403.186,68.897L398.172,60.17ZM408.792,50.63C407.062,50.225 404.88,50.081 403.493,51.326C402.514,52.262 402.168,53.587 402.454,54.912C403.003,57.298 405.734,57.235 407.306,58.541C407.998,59.215 408.202,60.11 408.077,61.068C407.978,61.946 407.345,62.76 406.55,63.108C405.451,63.557 404.105,63.391 403.21,62.578C402.718,62.189 402.943,61.498 402.78,60.967L402.35,60.967C402.35,61.903 402.372,62.64 402.331,63.598C404.736,64.085 407.426,64.046 409.118,62.129C409.915,61.09 410.098,59.294 409.426,58.133C408.305,56.177 405.96,56.482 404.554,54.912C404.105,54.218 404.004,53.22 404.268,52.406C404.45,51.775 405.002,51.142 405.655,51C406.654,50.794 407.59,51.041 408.283,51.691L408.386,52.834L408.77,52.834L408.792,50.63ZM422.426,50.63C420.672,50.63 418.817,50.734 417.084,50.63L417.084,51.06C417.41,51.101 417.797,51.079 418.104,51.182C417.37,53.261 416.39,55.279 415.332,57.197C414.293,55.238 413.254,53.22 412.519,51.163C412.865,51.12 413.314,51.163 413.662,51.041C413.64,50.916 413.662,50.774 413.621,50.652L409.258,50.671C409.258,50.815 409.195,50.978 409.298,51.079C409.666,51.12 410.03,51.12 410.378,51.182C411.703,53.486 412.846,55.872 413.906,58.277C413.945,59.885 413.844,61.517 413.7,63.065C413.232,63.065 412.786,63.086 412.356,63.149L412.356,63.557L417.002,63.557C416.983,63.413 417.043,63.228 416.962,63.127L415.699,63.026L415.555,58.032C416.638,55.646 417.797,53.302 419.41,51.142C419.897,51.019 420.346,51.142 420.876,51.142L420.998,51.266C421.099,55.178 421.058,59.294 420.55,63.065L419.369,63.149L419.369,63.535L423.036,63.557L423.014,63.127C422.59,63.108 422.16,63.065 421.793,62.986C421.55,59.561 421.55,55.85 421.61,52.488L426.746,59.477L429.6,63.598L430.661,63.598C430.56,59.436 430.62,55.178 431.17,51.163L432.372,51.06L432.331,50.63L428.664,50.652C428.683,50.794 428.623,50.978 428.724,51.079C429.11,51.12 429.54,51.12 429.886,51.182C430.212,54.384 430.212,57.806 430.092,60.986L428.765,59.357L422.426,50.63ZM435.43,50.652L432.679,50.63L432.679,51.079L433.841,51.142L433.963,51.264C434.066,55.238 434.023,59.294 433.514,63.065L432.331,63.146L432.372,63.595C433.555,63.514 434.858,63.514 436.001,63.595L436.001,63.146C435.634,63.086 435.146,63.108 434.758,63.005C434.532,59.561 434.472,55.625 434.575,52.488L438.854,58.296L442.565,63.595L443.623,63.595C443.522,59.335 443.585,55.217 444.134,51.161L445.337,51.06L445.337,50.652L441.626,50.671L441.67,51.079C442.015,51.122 442.483,51.122 442.829,51.182C443.134,54.3 443.177,57.766 443.074,60.905L443.035,60.967C441.974,59.724 441.077,58.418 440.098,57.154L435.43,50.652ZM453.775,50.671C450.883,50.695 448.517,50.794 445.541,50.652C445.541,50.794 445.44,50.957 445.541,51.079L446.765,51.242L446.868,53.016L446.846,60.703L446.702,63.065L445.277,63.146L445.277,63.557L454.042,63.595L454.063,61.09L453.655,61.109C453.593,61.577 453.694,62.11 453.37,62.455C451.98,63.026 450.312,63.026 448.702,63.005C448.62,61.09 448.558,59.09 448.661,57.257C449.719,57.317 450.799,57.278 451.697,57.746C451.86,58.092 451.86,58.522 451.882,58.949L452.268,58.949L452.328,55.32L451.942,55.32C451.898,55.728 451.92,56.134 451.738,56.462C450.821,56.868 449.7,56.83 448.639,56.789C448.68,54.994 448.62,53.016 448.783,51.182C450.25,51.101 451.697,51.223 452.959,51.691C453.408,51.917 453.31,52.507 453.408,52.874L453.737,52.855L453.775,50.671ZM459.809,50.671C458.302,50.774 456.65,50.774 455.141,50.671C454.918,51.49 455.957,51.019 456.343,51.264C457.752,53.201 458.933,55.238 460.075,57.298C458.65,59.335 457.162,61.334 455.285,63.127L454.224,63.168L454.224,63.617L458.177,63.617L458.177,63.168C457.73,63.127 457.2,63.168 456.854,63.046L457.711,61.639C458.546,60.355 459.403,59.03 460.402,57.869C460.706,58.397 461.03,58.949 461.359,59.479C461.969,60.682 462.706,61.903 463.152,63.146C462.828,63.146 462.502,63.127 462.154,63.168L462.154,63.617L466.759,63.595L466.759,63.168L465.66,63.127C464.009,60.967 462.806,58.644 461.501,56.34C462.643,54.545 464.071,52.834 465.641,51.204L466.536,51.079C466.517,50.957 466.558,50.794 466.517,50.671C465.374,50.755 464.273,50.734 463.133,50.695C463.133,50.834 463.111,50.998 463.152,51.122C463.5,51.142 463.846,51.161 464.172,51.264C463.255,52.834 462.295,54.403 461.196,55.85C460.298,54.382 459.444,52.894 458.628,51.386L458.606,51.204L459.83,51.079L459.809,50.671ZM408.624,68.522C408.425,68.594 408.24,68.645 408.07,68.671C407.899,68.7 407.719,68.714 407.53,68.714C407.239,68.714 406.992,68.686 406.788,68.626C406.639,68.58 406.49,68.508 406.346,68.41C406.198,68.309 406.08,68.186 405.991,68.035C405.902,67.884 405.857,67.706 405.857,67.505C405.857,67.169 405.989,66.91 406.25,66.72C406.514,66.533 406.862,66.439 407.302,66.439C407.542,66.439 407.741,66.463 407.897,66.506C408.05,66.55 408.192,66.617 408.317,66.703C408.329,66.785 408.334,66.895 408.338,67.034L408.574,67.034C408.583,66.912 408.598,66.782 408.626,66.643C408.643,66.554 408.665,66.48 408.694,66.42L408.679,66.394C408.415,66.331 408.18,66.288 407.981,66.262C407.779,66.238 407.554,66.223 407.302,66.223C406.57,66.223 406.001,66.35 405.598,66.6C405.197,66.852 404.995,67.174 404.995,67.572C404.995,67.805 405.062,68.018 405.199,68.215C405.288,68.345 405.418,68.467 405.583,68.578C405.749,68.69 405.953,68.782 406.19,68.849C406.495,68.93 406.843,68.974 407.239,68.974C407.52,68.974 407.75,68.959 407.935,68.928C408.122,68.897 408.331,68.839 408.566,68.758L408.694,68.568L408.624,68.522ZM411.125,68.366C410.954,68.17 410.868,67.92 410.868,67.622C410.868,67.392 410.921,67.19 411.024,67.02C411.127,66.85 411.276,66.703 411.468,66.583C411.66,66.463 411.871,66.377 412.097,66.326C412.387,66.257 412.702,66.223 413.045,66.223C413.386,66.223 413.695,66.257 413.971,66.322C414.175,66.372 414.358,66.442 414.516,66.535C414.674,66.626 414.794,66.722 414.876,66.818C414.96,66.914 415.02,67.02 415.063,67.138C415.106,67.25 415.128,67.38 415.128,67.517C415.128,67.757 415.068,67.975 414.943,68.177C414.854,68.328 414.725,68.46 414.55,68.578C414.377,68.695 414.18,68.786 413.959,68.849C413.657,68.933 413.311,68.974 412.92,68.974C412.5,68.974 412.14,68.923 411.838,68.82C411.535,68.717 411.298,68.566 411.125,68.366ZM411.862,66.95C411.775,67.118 411.73,67.306 411.73,67.51C411.73,67.8 411.79,68.042 411.91,68.234C412.03,68.426 412.183,68.561 412.37,68.64C412.558,68.719 412.778,68.758 413.035,68.758C413.268,68.758 413.482,68.722 413.666,68.645C413.854,68.568 414,68.443 414.106,68.263C414.211,68.083 414.264,67.865 414.264,67.608C414.264,67.435 414.235,67.272 414.178,67.128C414.122,66.982 414.038,66.857 413.93,66.756C413.825,66.655 413.7,66.576 413.554,66.521C413.41,66.468 413.215,66.439 412.978,66.439C412.704,66.439 412.471,66.482 412.279,66.569C412.09,66.655 411.948,66.782 411.862,66.95ZM417.312,66.43C417.542,66.439 417.679,66.454 417.725,66.468C417.739,66.475 417.754,66.485 417.766,66.499C417.785,66.53 417.794,66.626 417.797,66.785L417.809,67.183L417.809,67.882L417.797,68.434C417.792,68.532 417.782,68.606 417.768,68.654C417.763,68.683 417.756,68.702 417.746,68.71C417.734,68.717 417.718,68.726 417.696,68.729C417.655,68.736 417.528,68.743 417.312,68.748L417.312,68.909C417.557,68.904 417.823,68.899 418.109,68.899C418.43,68.899 418.752,68.904 419.071,68.909L419.071,68.748C418.891,68.746 418.783,68.743 418.745,68.738C418.706,68.734 418.68,68.729 418.663,68.717C418.646,68.71 418.634,68.7 418.627,68.69C418.61,68.669 418.601,68.623 418.594,68.551C418.594,68.518 418.591,68.371 418.589,68.112C418.586,67.903 418.586,67.704 418.586,67.517C418.586,67.397 418.591,67.162 418.601,66.809C418.606,66.648 418.61,66.545 418.618,66.499C418.706,66.49 418.795,66.482 418.884,66.482C419.086,66.482 419.222,66.492 419.302,66.511C419.422,66.542 419.522,66.598 419.606,66.672C419.688,66.749 419.729,66.845 419.729,66.96C419.729,67.075 419.688,67.178 419.611,67.27C419.532,67.361 419.436,67.426 419.323,67.462C419.21,67.498 419.045,67.514 418.819,67.51L418.79,67.57C418.846,67.598 418.903,67.639 418.963,67.692C419.086,67.802 419.23,67.951 419.4,68.141L420,68.803C420.036,68.849 420.058,68.882 420.07,68.909C420.216,68.904 420.365,68.899 420.514,68.899C420.643,68.899 420.852,68.904 421.14,68.909L421.14,68.748C421.054,68.746 420.994,68.741 420.965,68.734C420.934,68.724 420.902,68.71 420.871,68.686C420.84,68.664 420.754,68.59 420.612,68.465C420.605,68.458 420.54,68.395 420.425,68.28L419.99,67.846C419.978,67.834 419.969,67.822 419.957,67.81C419.95,67.798 419.914,67.762 419.854,67.704C419.794,67.646 419.741,67.589 419.695,67.531C419.983,67.459 420.197,67.358 420.338,67.234C420.478,67.106 420.547,66.965 420.547,66.809C420.547,66.682 420.497,66.569 420.394,66.48C420.29,66.389 420.168,66.329 420.024,66.3C419.878,66.271 419.657,66.257 419.366,66.257C419.215,66.257 419.023,66.262 418.795,66.269C418.654,66.274 418.486,66.278 418.291,66.278C418.061,66.278 417.883,66.276 417.761,66.274C417.504,66.271 417.355,66.269 417.312,66.269L417.312,66.43ZM423.442,66.444C423.49,66.449 423.521,66.456 423.54,66.463C423.557,66.47 423.569,66.48 423.578,66.492C423.588,66.506 423.6,66.533 423.605,66.571C423.61,66.61 423.612,66.703 423.617,66.857L423.629,67.212L423.629,67.879C423.629,68.126 423.617,68.35 423.595,68.551C423.588,68.623 423.578,68.671 423.564,68.688C423.554,68.702 423.542,68.712 423.526,68.717C423.47,68.736 423.341,68.746 423.132,68.748L423.132,68.909C423.374,68.904 423.631,68.899 423.898,68.899C424.14,68.899 424.502,68.904 424.985,68.909L424.985,68.748L424.603,68.731C424.555,68.729 424.524,68.722 424.505,68.712C424.488,68.702 424.474,68.69 424.466,68.678C424.452,68.65 424.44,68.578 424.435,68.47C424.428,68.28 424.426,68.1 424.426,67.922L424.426,67.207L424.428,66.84C424.43,66.689 424.43,66.571 424.435,66.494C424.567,66.47 424.685,66.463 424.79,66.463C425.016,66.463 425.189,66.506 425.316,66.593C425.441,66.679 425.503,66.811 425.503,66.984C425.503,67.15 425.443,67.277 425.328,67.366C425.208,67.452 425.057,67.498 424.874,67.498C424.843,67.498 424.812,67.495 424.774,67.49C424.738,67.486 424.699,67.478 424.656,67.469L424.598,67.512C424.646,67.565 424.68,67.61 424.699,67.646C424.754,67.651 424.812,67.658 424.87,67.663C424.925,67.668 424.985,67.67 425.045,67.67C425.282,67.67 425.506,67.63 425.714,67.55C425.926,67.471 426.077,67.37 426.175,67.25C426.274,67.128 426.324,66.996 426.324,66.852C426.324,66.71 426.271,66.595 426.168,66.504C426.07,66.415 425.945,66.35 425.803,66.319C425.659,66.286 425.465,66.269 425.22,66.269L423.965,66.278L423.132,66.269L423.132,66.43L423.442,66.444ZM428.741,68.366C428.568,68.17 428.484,67.92 428.484,67.622C428.484,67.392 428.537,67.19 428.638,67.02C428.743,66.85 428.89,66.703 429.084,66.583C429.276,66.463 429.485,66.377 429.71,66.326C430.001,66.257 430.318,66.223 430.661,66.223C431.002,66.223 431.309,66.257 431.585,66.322C431.794,66.372 431.974,66.442 432.132,66.535C432.29,66.626 432.41,66.722 432.492,66.818C432.574,66.914 432.636,67.02 432.679,67.138C432.72,67.25 432.742,67.38 432.742,67.517C432.742,67.757 432.682,67.975 432.559,68.177C432.47,68.328 432.338,68.46 432.166,68.575C431.993,68.695 431.796,68.786 431.575,68.849C431.27,68.933 430.925,68.974 430.536,68.974C430.116,68.974 429.754,68.923 429.451,68.82C429.151,68.717 428.914,68.566 428.741,68.366ZM429.475,66.95C429.389,67.118 429.346,67.306 429.346,67.51C429.346,67.8 429.406,68.042 429.526,68.234C429.646,68.426 429.799,68.561 429.986,68.64C430.174,68.719 430.394,68.758 430.649,68.758C430.886,68.758 431.098,68.722 431.282,68.645C431.47,68.568 431.614,68.443 431.722,68.263C431.827,68.083 431.88,67.865 431.88,67.608C431.88,67.435 431.851,67.272 431.794,67.128C431.736,66.982 431.654,66.857 431.549,66.756C431.441,66.653 431.314,66.576 431.17,66.521C431.026,66.468 430.834,66.439 430.594,66.439C430.32,66.439 430.09,66.482 429.895,66.569C429.703,66.655 429.564,66.782 429.475,66.95ZM434.928,66.43C435.156,66.439 435.295,66.454 435.338,66.468C435.355,66.475 435.37,66.485 435.379,66.499C435.398,66.53 435.408,66.626 435.413,66.785L435.425,67.183L435.425,67.882L435.413,68.434C435.408,68.532 435.398,68.606 435.386,68.654C435.379,68.683 435.372,68.702 435.36,68.71C435.35,68.717 435.334,68.726 435.312,68.729C435.271,68.736 435.144,68.743 434.928,68.748L434.928,68.909C435.17,68.904 435.437,68.899 435.722,68.899C436.046,68.899 436.366,68.904 436.685,68.909L436.685,68.748C436.505,68.746 436.397,68.743 436.361,68.738C436.322,68.734 436.294,68.729 436.279,68.717C436.262,68.71 436.25,68.7 436.243,68.69C436.226,68.669 436.217,68.623 436.212,68.551C436.21,68.518 436.207,68.371 436.205,68.112C436.2,67.903 436.2,67.704 436.2,67.517C436.2,67.397 436.205,67.162 436.217,66.809C436.222,66.648 436.226,66.545 436.231,66.499C436.32,66.49 436.409,66.482 436.498,66.482C436.697,66.482 436.838,66.492 436.915,66.511C437.038,66.542 437.138,66.598 437.22,66.672C437.302,66.749 437.342,66.845 437.342,66.96C437.342,67.075 437.304,67.178 437.225,67.27C437.148,67.361 437.052,67.426 436.939,67.462C436.826,67.498 436.658,67.514 436.435,67.51L436.406,67.57C436.462,67.598 436.519,67.639 436.579,67.692C436.697,67.802 436.843,67.951 437.016,68.141L437.616,68.803C437.652,68.849 437.674,68.882 437.683,68.909C437.832,68.904 437.981,68.899 438.13,68.899C438.259,68.899 438.468,68.904 438.756,68.909L438.756,68.748C438.67,68.746 438.61,68.741 438.578,68.734C438.55,68.724 438.518,68.71 438.487,68.686C438.454,68.664 438.37,68.59 438.228,68.465C438.218,68.458 438.156,68.395 438.041,68.28L437.606,67.846C437.594,67.834 437.585,67.822 437.575,67.81C437.563,67.798 437.53,67.762 437.47,67.704C437.41,67.646 437.357,67.589 437.309,67.531C437.599,67.459 437.815,67.358 437.952,67.234C438.094,67.106 438.163,66.965 438.163,66.809C438.163,66.682 438.11,66.569 438.01,66.48C437.906,66.389 437.784,66.329 437.638,66.3C437.494,66.271 437.273,66.257 436.98,66.257C436.831,66.257 436.639,66.262 436.409,66.269C436.27,66.274 436.102,66.278 435.905,66.278C435.677,66.278 435.499,66.276 435.374,66.274C435.12,66.269 434.971,66.269 434.928,66.269L434.928,66.43ZM440.705,68.909L440.705,68.748C440.856,68.741 440.945,68.734 440.976,68.729C441.005,68.722 441.029,68.714 441.048,68.702C441.07,68.688 441.091,68.671 441.113,68.645C441.134,68.618 441.199,68.525 441.305,68.359C441.355,68.28 441.449,68.129 441.588,67.901L442.322,66.691L442.57,66.269L442.968,66.269L444.223,68.222L444.396,68.479L444.511,68.652C444.528,68.676 444.547,68.69 444.564,68.702C444.581,68.712 444.6,68.719 444.622,68.724C444.643,68.729 444.696,68.734 444.785,68.736C444.814,68.741 444.854,68.743 444.91,68.748L444.91,68.909L444.13,68.899L443.143,68.909L443.143,68.748C443.369,68.741 443.496,68.731 443.527,68.722C443.554,68.712 443.57,68.695 443.57,68.671C443.57,68.64 443.549,68.59 443.506,68.515L443.268,68.112L441.814,68.112L441.691,68.33C441.598,68.503 441.552,68.609 441.552,68.652C441.552,68.681 441.566,68.702 441.595,68.714C441.638,68.729 441.773,68.743 441.996,68.748L441.996,68.909L441.348,68.899L440.705,68.909ZM441.948,67.886C442.123,67.891 442.322,67.896 442.543,67.896C442.757,67.896 442.951,67.891 443.122,67.886L442.526,66.929L441.948,67.886ZM447.242,68.909C447.588,68.904 447.893,68.899 448.157,68.899C448.406,68.899 448.714,68.904 449.074,68.909L449.074,68.748C448.85,68.743 448.716,68.734 448.675,68.717C448.632,68.702 448.603,68.678 448.589,68.645C448.57,68.59 448.558,68.429 448.558,68.158L448.558,67.03C448.558,66.732 448.56,66.559 448.565,66.514L448.963,66.514C449.174,66.514 449.357,66.523 449.508,66.533C449.556,66.535 449.585,66.538 449.597,66.542C449.609,66.554 449.623,66.581 449.63,66.626C449.652,66.715 449.666,66.809 449.669,66.905L449.916,66.905C449.923,66.636 449.926,66.499 449.928,66.492C449.93,66.432 449.942,66.365 449.959,66.288L449.93,66.269C449.844,66.271 449.755,66.274 449.671,66.274C449.51,66.276 449.196,66.278 448.726,66.278L447.59,66.278C447.134,66.278 446.825,66.276 446.664,66.274C446.566,66.274 446.47,66.271 446.383,66.269L446.359,66.288C446.371,66.35 446.381,66.41 446.388,66.468C446.388,66.499 446.395,66.643 446.402,66.905L446.65,66.905C446.652,66.797 446.666,66.698 446.69,66.612C446.7,66.574 446.71,66.552 446.724,66.542C446.734,66.538 446.767,66.533 446.83,66.53C446.981,66.521 447.154,66.514 447.355,66.514L447.749,66.514C447.756,66.554 447.761,66.725 447.761,67.03L447.761,68.158C447.766,68.429 447.761,68.59 447.739,68.645C447.725,68.678 447.694,68.705 447.65,68.719C447.61,68.734 447.47,68.743 447.242,68.748L447.242,68.909ZM453.842,66.269C453.538,66.274 453.211,66.278 452.868,66.278C452.563,66.278 452.292,66.274 452.054,66.269L452.054,66.43C452.258,66.432 452.376,66.437 452.41,66.444C452.443,66.449 452.465,66.456 452.479,66.466C452.491,66.475 452.498,66.487 452.506,66.504C452.518,66.545 452.53,66.643 452.539,66.806C452.546,66.878 452.551,67.039 452.551,67.289L452.551,68.083C452.551,68.215 452.546,68.354 452.539,68.503C452.53,68.609 452.52,68.669 452.515,68.686C452.51,68.695 452.503,68.707 452.489,68.714C452.472,68.724 452.446,68.729 452.405,68.736C452.374,68.741 452.256,68.743 452.054,68.748L452.054,68.909C452.292,68.904 452.561,68.899 452.863,68.899C453.211,68.899 453.538,68.904 453.842,68.909L453.842,68.748C453.66,68.746 453.547,68.743 453.511,68.736C453.47,68.729 453.442,68.724 453.425,68.714C453.406,68.705 453.394,68.69 453.386,68.671C453.367,68.633 453.358,68.549 453.358,68.417L453.348,68.069L453.348,67.308C453.348,67.284 453.35,67.116 453.355,66.806C453.355,66.713 453.358,66.65 453.358,66.617C453.365,66.559 453.372,66.516 453.386,66.494C453.394,66.48 453.403,66.47 453.42,66.463C453.434,66.456 453.461,66.449 453.497,66.444C453.535,66.437 453.65,66.432 453.842,66.43L453.842,66.269ZM456.305,68.366C456.132,68.17 456.046,67.92 456.046,67.622C456.046,67.392 456.098,67.19 456.202,67.02C456.305,66.85 456.454,66.703 456.648,66.583C456.84,66.463 457.049,66.377 457.274,66.326C457.565,66.257 457.882,66.223 458.222,66.223C458.563,66.223 458.87,66.257 459.149,66.322C459.355,66.372 459.535,66.442 459.694,66.535C459.852,66.626 459.972,66.722 460.054,66.818C460.138,66.914 460.2,67.02 460.243,67.138C460.284,67.25 460.306,67.38 460.306,67.517C460.306,67.754 460.243,67.975 460.123,68.177C460.032,68.328 459.9,68.46 459.73,68.575C459.554,68.693 459.358,68.786 459.137,68.849C458.834,68.933 458.489,68.974 458.1,68.974C457.68,68.974 457.318,68.923 457.015,68.82C456.713,68.717 456.475,68.566 456.305,68.366ZM457.039,66.95C456.95,67.118 456.91,67.306 456.91,67.51C456.91,67.8 456.97,68.042 457.09,68.234C457.21,68.426 457.361,68.561 457.548,68.64C457.735,68.719 457.956,68.758 458.21,68.758C458.448,68.758 458.657,68.722 458.846,68.645C459.031,68.568 459.18,68.443 459.283,68.263C459.391,68.083 459.444,67.865 459.444,67.608C459.444,67.435 459.413,67.272 459.358,67.128C459.3,66.982 459.218,66.857 459.11,66.756C459.005,66.653 458.878,66.576 458.734,66.521C458.59,66.468 458.395,66.439 458.155,66.439C457.882,66.439 457.649,66.482 457.457,66.569C457.265,66.655 457.126,66.782 457.039,66.95ZM462.468,68.909C462.782,68.904 463.03,68.899 463.212,68.899L463.819,68.899L463.819,68.748C463.795,68.75 463.774,68.75 463.764,68.75C463.706,68.75 463.62,68.746 463.495,68.736C463.452,68.731 463.421,68.726 463.404,68.717C463.385,68.71 463.375,68.695 463.366,68.681C463.351,68.65 463.339,68.558 463.332,68.412C463.318,68.203 463.31,67.999 463.31,67.805L463.31,66.864C464.422,67.774 465.281,68.458 465.886,68.909C466.046,68.93 466.205,68.952 466.358,68.974L466.392,68.957C466.37,68.779 466.363,68.268 466.363,67.426C466.363,67.32 466.363,67.152 466.366,66.926C466.37,66.701 466.387,66.557 466.414,66.492C466.421,66.48 466.43,66.468 466.445,66.463C466.49,66.444 466.627,66.432 466.858,66.43L466.858,66.269C466.574,66.274 466.344,66.278 466.164,66.278C465.974,66.278 465.766,66.274 465.538,66.269L465.538,66.43C465.785,66.432 465.931,66.444 465.977,66.466C466.001,66.48 466.02,66.511 466.025,66.559C466.049,66.677 466.061,67.075 466.061,67.752L466.049,68.189C465.79,68.009 465.461,67.759 465.065,67.44C464.515,66.996 464.045,66.607 463.661,66.269L463.402,66.274L462.994,66.278C462.883,66.278 462.706,66.274 462.468,66.269L462.468,66.43C462.667,66.439 462.79,66.446 462.828,66.454C462.871,66.463 462.9,66.47 462.917,66.485C462.936,66.499 462.948,66.518 462.96,66.545C462.97,66.574 462.974,66.631 462.974,66.725L462.986,67.274L462.986,67.879C462.986,68.047 462.984,68.182 462.974,68.29C462.96,68.472 462.946,68.585 462.934,68.633C462.924,68.669 462.912,68.69 462.898,68.702C462.883,68.714 462.866,68.722 462.845,68.729C462.814,68.734 462.689,68.741 462.468,68.748L462.468,68.909ZM412.243,49.202C411.42,45.538 409.438,41.765 405.912,39.756C402.47,37.562 397.07,37.49 393.6,39.643C389.722,41.825 387.398,45.773 387.288,50.093C387.264,50.256 387.314,50.899 387.314,50.899L388.128,48.866C390.283,44.285 395.242,41.186 400.397,41.314C405.47,41.357 410.155,44.554 412.243,49.202Z" style="fill:rgb(0,82,93);fill-rule:nonzero;"/>
    </g>
</svg>
